<?xml version="1.0" standalone="no"?>
<!DOCTYPE svg PUBLIC "-//W3C//DTD SVG 20010904//EN"
 "http://www.w3.org/TR/2001/REC-SVG-20010904/DTD/svg10.dtd">
<svg version="1.0" xmlns="http://www.w3.org/2000/svg"
 width="512.000000pt" height="512.000000pt" viewBox="0 0 512.000000 512.000000"
 preserveAspectRatio="xMidYMid meet">
<metadata>
Created by potrace 1.16, written by Peter Selinger 2001-2019
</metadata>
<g transform="translate(0.000000,512.000000) scale(0.100000,-0.100000)"
fill="#ffffff" stroke="none">
<path d="M2710 4518 l0 -605 -118 -11 c-983 -96 -1840 -680 -2287 -1557 -115
-226 -208 -493 -255 -735 -45 -235 -50 -330 -50 -989 0 -344 4 -621 8 -616 5
6 93 208 197 450 225 527 267 607 440 840 449 604 1126 996 1886 1090 68 8
136 15 151 15 l28 0 2 -607 3 -606 1203 983 c661 541 1202 986 1202 990 0 7
-2384 1953 -2401 1958 -5 2 -9 -232 -9 -600z"/>
</g>
</svg>
